<svg width="561" height="569" viewBox="0 0 561 569" fill="none" xmlns="http://www.w3.org/2000/svg">
<path d="M218.3 56.4L191.8 25.4L159.3 8.40002L119.8 17.4L105.8 49.9L106.3 87.9L121.8 112.4L126.3 128.4L103.3 187.9L82.3003 243.9L76.8003 269.4C76.8003 269.4 83.3003 297.9 81.8003 298.9C80.3003 299.9 100.3 330.4 100.3 330.4L110.3 334.4L156.3 326.9L171.8 332.4L186.3 421.4L194.8 451.4H507.3L494.3 395.4L466.3 345.4L486.8 320.9L503.8 278.9L499.3 243.9L480.3 198.9L461.8 149.4L450.8 118.9L467.3 94.9L475.3 58.9L463.8 28.9L434.8 11.4H409.3L390.3 29.4L372.8 43.9L362.8 59.4L339.3 48.9L273.8 44.4L240.3 49.9L218.3 56.4Z" fill="#DF9351"/>
<path d="M85.8003 339.4L31.8003 347.9L23.3003 355.9L53.3003 525.9L66.3003 530.9L202.3 511.4L200.8 497.4L171.8 332.4L155.8 323.9L85.8003 339.4Z" fill="#C7EFE2"/>
<path d="M23.8003 413.4L7.80029 439.4L15.3003 471.4L33.3003 493.4L62.8003 486.4L68.3003 463.4L65.8003 425.9L55.8003 411.9L36.8003 409.4L23.8003 413.4Z" fill="#DF9351"/>
<path d="M448.61 273.9C447.49 264.57 425.1 258.44 397.48 254.43C391.46 258.059 384.579 260.01 377.55 260.08C367.709 260.127 358.227 256.385 351.07 249.63C321.88 247.52 296.17 247 290.89 246.91H290.39C285.03 247 258.56 247.54 228.81 249.74C221.673 255.793 212.657 259.183 203.3 259.33C196.644 259.358 190.096 257.652 184.3 254.38C156.6 258.38 134.1 264.53 132.98 273.89C131.72 284.4 136.55 304.45 152.23 324.16C157.865 325.962 163.031 328.992 167.354 333.032C171.677 337.071 175.05 342.02 177.23 347.52C201.65 364.65 237.95 377.72 290.36 377.88H290.86C420.23 377.49 451.61 298.84 448.61 273.9Z" fill="#F5BA83"/>
<path d="M143.26 38.0599C143.26 38.0599 101.44 33.4299 118 96.8999C118 96.8999 126.45 114.22 139.82 118.9C139.82 118.9 145.5 105 162.82 91.0799L163.82 64.0799L159.32 50.7699L147.99 41.8599L143.26 38.0599Z" fill="#DB8544"/>
<path d="M438.13 40.64C438.13 40.64 448.8 42 455.74 50C461.6 56.76 463.49 65.33 463.49 74.06C463.49 78.86 462.98 84.14 462.68 88.93C462.28 95.04 461.34 100.84 458.28 106.2C456.239 109.827 453.388 112.934 449.95 115.28C447.759 116.768 445.341 117.889 442.79 118.6C442.65 118.6 441.07 119.13 440.98 118.99C440.89 118.85 426.83 97.78 410.2 87.32L412.46 67.19L422.65 56.19L428.82 45.19L438.13 40.64Z" fill="#DB8544"/>
<path d="M144.8 312.9C164.406 312.9 180.3 297.006 180.3 277.4C180.3 257.794 164.406 241.9 144.8 241.9C125.194 241.9 109.3 257.794 109.3 277.4C109.3 297.006 125.194 312.9 144.8 312.9Z" fill="#F99F6F"/>
<path d="M435.8 312.9C455.406 312.9 471.3 297.006 471.3 277.4C471.3 257.794 455.406 241.9 435.8 241.9C416.194 241.9 400.3 257.794 400.3 277.4C400.3 297.006 416.194 312.9 435.8 312.9Z" fill="#F99F6F"/>
<path d="M475.26 346.35C475.217 346.28 475.2 346.198 475.213 346.117C475.226 346.036 475.267 345.963 475.33 345.91C485.4 337.09 494.16 327.23 500.26 315.31C513.47 289.48 513.18 262.61 504.57 235.81C500.02 221.66 492.57 208.47 487.35 194.49C478.72 171.35 470.81 147.94 462.72 124.6C462.554 123.935 462.531 123.243 462.653 122.568C462.776 121.894 463.041 121.254 463.43 120.69C480.99 98.61 484.43 73.48 479.17 46.69C473.77 19.2 453.82 2.99997 425.89 2.91997C408.13 2.83997 393.09 9.83997 380.37 21.52C372.18 29.04 365.14 37.8 357.57 46.05C357.524 46.0991 357.464 46.1337 357.398 46.1497C357.333 46.1657 357.264 46.1623 357.2 46.14C312.78 30.6 267.72 31.26 222.5 46.38C222.426 46.4045 222.346 46.4029 222.274 46.3756C222.201 46.3483 222.14 46.2969 222.1 46.23C213.297 31.5483 201.142 19.1602 186.63 10.08C153.77 -10.37 114.33 1.28997 101.9 36C92.0401 63.5 95.3501 90.38 111.9 114.48C117.06 121.99 117.82 127.15 114.44 135.48C112.37 140.56 110.44 145.72 108.66 150.9C104.54 162.69 100.85 174.62 96.5001 186.33C94.3301 192.18 92.0001 197.98 89.3801 203.65C86.8301 209.17 83.6401 214.34 81.0601 219.82C70.1601 242.92 66.0601 269.92 72.3201 294.82C75.3454 306.717 80.9818 317.792 88.8201 327.24C88.8572 327.287 88.8815 327.343 88.8907 327.403C88.8999 327.462 88.8936 327.523 88.8725 327.579C88.8514 327.635 88.8162 327.685 88.7703 327.724C88.7243 327.763 88.6691 327.789 88.6101 327.8C86.0101 328.25 83.9201 328.64 81.8201 328.97C64.9201 331.6 48.0001 334 31.1201 337C19.7001 339 13.7101 348.53 15.7901 359.83L23.9301 404C23.9447 404.073 23.9349 404.148 23.9024 404.215C23.8699 404.282 23.8164 404.336 23.7501 404.37C15.7501 408.37 9.75012 413.8 5.60012 421.25C-1.16988 433.51 -1.17988 446.45 2.31012 459.52C6.65012 475.77 13.8201 491.25 30.1601 497.52C40.2801 501.39 42.5901 507.24 43.3401 516C43.4201 517 43.9501 517.92 44.0401 518.9C45.0401 531.25 53.9301 541.17 70.7701 538.78C96.6201 535.11 122.44 531.24 148.28 527.53C161.11 525.69 173.95 522.68 186.82 522.53C214.88 522.17 242.94 522.15 271 522.23C270.25 516.47 269.67 510.7 269.34 504.92H212.88C212.496 504.905 212.115 504.855 211.74 504.77C211.661 504.756 211.589 504.714 211.538 504.651C211.486 504.589 211.459 504.511 211.46 504.43C211.52 486.59 206.46 469.58 203.31 452.31C196.31 414 188.86 376 181.42 338C178.61 323.63 166.86 315.69 152.42 317.87C138.93 319.87 125.42 321.78 111.97 324.08C108.89 324.61 107.41 323.45 105.7 321.48C86.5101 299.37 82.7001 273.71 90.5501 246.59C95.0001 231.21 102.55 216.71 108.74 201.84C110.04 198.72 111.54 195.68 112.94 192.64C112.972 192.57 113.028 192.513 113.097 192.478C113.166 192.444 113.245 192.434 113.32 192.45L138.13 197.45C138.198 197.465 138.26 197.499 138.308 197.549C138.356 197.599 138.388 197.662 138.4 197.73C140.27 207.4 141.07 216.87 144.06 225.6C148.489 238.649 157.11 249.866 168.58 257.504C180.049 265.143 193.722 268.773 207.47 267.83C216.457 267.207 225.228 264.794 233.268 260.733C241.309 256.671 248.456 251.043 254.29 244.18C260.214 237.272 264.494 229.111 266.81 220.31C268.5 213.76 268.07 205.07 275.49 202.12C283.554 198.826 292.464 198.22 300.9 200.39C306.82 201.95 313.16 204.66 314.06 211.47C317.11 234.6 328.63 252 350 262C392.05 281.79 442.9 248.88 442.35 202.42C442.35 201.01 442.35 199.6 442.35 197.94C442.351 197.86 442.379 197.782 442.43 197.72C442.481 197.659 442.552 197.616 442.63 197.6L467.76 192.6C467.838 192.582 467.92 192.592 467.992 192.629C468.063 192.665 468.119 192.726 468.15 192.8C477.43 214.73 489.96 235.72 492.77 260.33C495.86 287.33 488.6 311.14 468.54 329.72C463.85 334.07 458.85 338.08 453.75 341.94C448.65 345.8 443.4 349.56 438.23 353.37C436.37 354.74 434.46 356.13 432.53 357.42C430.6 358.71 428.6 359.68 427.31 361.55C427.024 361.958 426.808 362.411 426.67 362.89C426.543 363.61 426.683 364.352 427.064 364.977C427.445 365.601 428.041 366.064 428.74 366.28C430.342 366.744 432.031 366.826 433.67 366.52C435.564 366.342 437.433 365.953 439.24 365.36C445.69 363.2 452.07 360.78 458.32 358.11C460.76 357.11 462.2 357.11 463.75 359.33C477.66 379.33 488.3 400.33 492.88 423.33C498.35 422.72 503.885 423.059 509.24 424.33L509.96 424.52C506.2 404.9 498.96 386.58 489.18 369.08C484.82 361.37 480 354 475.26 346.35ZM35.0001 482C25.4901 475.46 21.1301 465.63 18.5001 455C16.5701 447.17 16.1901 439.21 19.1901 431.43C23.6301 419.89 37.2601 413.61 48.7401 418.15C50.9589 419.147 52.8265 420.788 54.1001 422.86C55.9301 425.8 55.4601 428.51 51.6001 429.94C47.7401 431.37 42.2101 433 40.0001 436.74C39.469 437.577 39.276 438.586 39.4601 439.56C39.9201 441.56 42.1701 442.75 44.0401 443.04C48.4801 443.72 53.3501 440.9 57.4801 443.38C58.689 444.115 59.6849 445.153 60.3691 446.391C61.0533 447.63 61.4021 449.025 61.3809 450.44C61.3596 451.855 60.9692 453.239 60.2481 454.457C59.5271 455.674 58.5005 456.682 57.2701 457.38C53.3801 459.72 48.0601 460.02 45.8901 464.62C45.5225 465.265 45.3931 466.02 45.5247 466.751C45.6563 467.482 46.0405 468.143 46.6101 468.62C49.3001 470.74 52.8101 470.48 55.9801 469.94C57.6101 469.66 59.2301 469.01 60.9101 469.05C63.3401 469.11 63.1901 471.49 62.6001 473.22C61.342 476.506 59.0087 479.269 55.9801 481.06C55.3301 481.48 54.6501 481.87 53.9801 482.24C47.7001 485.65 41.2101 486.22 35.0001 482ZM155.16 333.56C161.36 332.62 165.06 335.19 166.21 341.25C175.437 389.917 184.677 438.55 193.93 487.15C194.52 490.25 194.99 493.37 195.56 496.48C196.61 502.19 195.24 504.43 189.35 505.36C174.91 507.65 160.44 509.77 145.98 511.9C121.49 515.51 96.9801 519.01 72.5001 522.7C63.1801 524.11 60.8101 522.64 59.1701 513.54C58.3101 508.75 57.4101 503.97 56.5401 499.22C56.5253 499.142 56.5382 499.061 56.5766 498.992C56.6149 498.923 56.6763 498.869 56.7501 498.84C82.7501 487.84 82.9001 465 75.2201 443.13C73.3684 437.688 72.1078 432.062 71.4601 426.35C69.3201 409.62 58.8101 400.29 42.0001 400C41.4001 400 40.7901 400 39.7601 400C39.6782 400.002 39.5984 399.974 39.5344 399.923C39.4705 399.872 39.4265 399.8 39.4101 399.72C36.7301 385.48 33.9001 371.3 31.6401 357.03C31.4101 355.61 34.5201 352.44 36.4501 352.08C50.8301 349.44 65.2901 347.24 79.7501 345.03C104.87 341.13 130 337.38 155.16 333.56ZM202.94 252.83C196.47 252.781 190.074 251.449 184.122 248.911C178.171 246.374 172.781 242.681 168.266 238.047C163.751 233.413 160.199 227.929 157.818 221.913C155.436 215.897 154.271 209.469 154.39 203C154.68 175.08 176.7 153.44 204.57 153.69C233.42 153.95 253.63 175.18 253.33 204.91C253 233.13 232 253.16 202.93 252.82L202.94 252.83ZM379.05 252.83C350.78 253.19 327.88 231.13 327.69 203.36C327.51 176.01 349.22 154.22 377.1 153.75C405.56 153.28 426.93 174.58 427.33 203.82C427.69 230.3 405.86 252.45 379 252.8L379.05 252.83ZM462.45 178.34C455.15 179.56 448.55 180.58 441.99 181.82C438.63 182.46 438.24 180.09 437.36 177.95C426.51 151.65 400.85 135.67 373.25 137.95C359.966 139.061 347.328 144.158 336.989 152.573C326.651 160.988 319.095 172.328 315.31 185.11C315.02 186.11 314.69 187.11 314.31 188.29C314.295 188.336 314.27 188.378 314.237 188.414C314.205 188.45 314.165 188.478 314.121 188.498C314.077 188.518 314.029 188.528 313.981 188.528C313.932 188.529 313.885 188.519 313.84 188.5C298.74 181.65 283.69 180.7 268.53 187.6C268.487 187.619 268.44 187.629 268.393 187.629C268.346 187.63 268.299 187.62 268.256 187.601C268.213 187.582 268.174 187.555 268.142 187.52C268.11 187.486 268.085 187.445 268.07 187.4C258 158 238.55 139.5 206.92 138.13C175.64 136.77 155.31 153.68 143.02 182.13C142.99 182.2 142.937 182.258 142.87 182.294C142.803 182.33 142.725 182.343 142.65 182.33L122 178.58C119.39 178.11 119 176.58 119.62 174.21C124.3 157.54 129.04 140.92 137.73 125.73C141.54 119.06 141.15 118.53 134.98 114.09C125.81 107.5 120.6 98.09 117.09 87.67C112.777 74.9815 112.252 61.3117 115.58 48.33C122.82 19 150.07 8.12997 176.25 24.26C189.59 32.48 199.64 43.87 207.44 57.36C213.38 67.62 213.3 67.27 224.27 63.36C270.62 46.88 316.81 46.56 362.55 65.69C366.42 67.31 367.81 66.2 369.46 63.1C376.87 49.24 386.46 37.25 399.71 28.48C409.57 21.96 420.29 17.93 432.2 19.48C448.2 21.58 458.82 32.27 462.91 49.48C465.97 62.36 465.91 75.22 461.91 87.91C458.84 97.55 453.96 106.13 446.18 112.8C439.88 118.2 439.84 118.61 443.54 126.15C447.24 133.69 451.14 141 454 148.77C457.36 157.98 459.72 167.56 462.75 177.86C462.763 177.909 462.766 177.96 462.758 178.01C462.749 178.06 462.73 178.107 462.702 178.149C462.673 178.191 462.636 178.226 462.592 178.252C462.549 178.278 462.5 178.295 462.45 178.3V178.34Z" fill="#5B2B1D"/>
<path d="M291.31 311.93C273.54 324.86 252.76 322.93 238.57 307.13C236.692 305 235.15 302.596 234 300C232.25 296.11 233.58 292.67 237.1 290.53C240.8 288.28 244.17 289.53 246.83 292.71C247.599 293.787 248.269 294.932 248.83 296.13C251.464 300.828 255.791 304.345 260.929 305.964C266.067 307.582 271.628 307.18 276.48 304.84C283.48 301.51 287.26 291.65 283.83 284.84C283.15 283.48 281.05 282.7 279.46 281.96C267.62 276.44 260.61 267.61 259.85 254.23C259.37 245.65 262.85 238.85 269.45 233.92C280.36 225.78 292.45 224.4 304.8 230.15C322.67 238.5 325.68 261 311.05 275.15C308.792 277.367 306.233 279.255 303.45 280.76C299.96 282.6 296.87 284 297.05 288.98C297.27 295.05 297.67 300.74 303.52 304.19C306.157 305.807 309.12 306.816 312.196 307.145C315.271 307.473 318.381 307.113 321.3 306.09C323.704 305.375 325.922 304.142 327.796 302.476C329.671 300.81 331.157 298.753 332.15 296.45C332.565 295.363 333.102 294.326 333.75 293.36C336.19 290.1 339.4 288.45 343.29 290.36C347.18 292.27 347.89 295.92 346.29 299.76C342.35 309.45 335.1 315.76 325.34 319.11C312.85 323.5 301.55 320.71 291.31 311.93Z" fill="#5B2B1D"/>
<path d="M438.13 40.6399C432.08 49.3699 426.23 57.7199 420.47 66.1399C417.7 70.1399 418.1 73.2999 422.96 75.6899C425.904 77.2531 428.6 79.2448 430.96 81.5999C431.748 82.2819 432.394 83.1126 432.86 84.0446C433.326 84.9766 433.604 85.9914 433.677 87.0309C433.751 88.0705 433.618 89.1143 433.288 90.1025C432.957 91.0908 432.434 92.004 431.75 92.7899C428.11 96.8799 423.58 97.2999 419.39 94.2499C413.48 89.9499 407.39 85.9299 401.49 81.5599C400.831 81.059 400.284 80.4256 399.884 79.7005C399.485 78.9754 399.241 78.1747 399.17 77.3499C400 63.8999 421.61 41.9999 435 40.6499C436.042 40.5913 437.087 40.5879 438.13 40.6399Z" fill="#5B2B1D"/>
<path d="M143.26 38.0599C147.18 39.1299 150.57 39.4699 153.38 40.9199C166.55 47.7099 176.25 57.7999 181.7 71.7999C183.38 76.0999 183.3 78.9399 178.52 81.3399C173.36 83.9399 168.76 87.6499 163.88 90.8199C158.81 94.1099 153.13 92.9599 150.09 88.0999C147.39 83.7699 148.81 79.3599 154.03 75.9199C154.45 75.6499 154.88 75.3899 155.31 75.1399C164.5 69.6799 164.79 69.4999 158.99 60.2099C154.45 52.9999 149.1 46.2199 143.26 38.0599Z" fill="#5B2B1D"/>
<path d="M230.53 210.42C230.53 221.81 222.82 230.21 212.46 230.16C202.46 230.16 194.22 221.22 194.1 210.35C193.98 198.94 202.39 189.59 212.69 189.7C222.77 189.79 230.55 198.83 230.53 210.42Z" fill="#5B2B1D"/>
<path d="M350.78 210.25C350.78 198.47 358.68 189.58 369.2 189.65C379.26 189.71 387.31 198.48 387.43 209.51C387.57 221.38 379.9 229.98 369.07 230.1C358.24 230.22 350.83 222.24 350.78 210.25Z" fill="#5B2B1D"/>
<path d="M171.54 483.44C170.125 483.627 168.695 483.681 167.27 483.6C164.082 483.387 160.924 482.857 157.84 482.02C152.877 480.736 148.022 479.065 143.32 477.02C137.112 480.335 130.364 482.519 123.39 483.47C122.32 483.61 121.23 483.72 120.16 483.8C109.975 484.595 99.767 482.59 90.6402 478L90.4002 477.87C85.8193 475.392 81.6388 472.236 78.0002 468.51L77.7302 468.23C70.5002 460.46 66.1902 451.47 62.9302 443.7C57.3302 430.06 56.6202 413.47 60.9302 398.1V398C63.9302 387.64 72.0302 377.8 82.5802 371.67C89.9142 367.316 98.0611 364.509 106.52 363.42C109.732 362.997 112.971 362.82 116.21 362.89C125.66 362.961 134.93 365.476 143.12 370.19C149.816 374.175 155.374 379.816 159.26 386.57C166.26 398.83 170.43 411 171.65 422.73C171.961 425.498 172.078 428.285 172 431.07L177.43 431.98L177.81 432.04C181.59 432.514 185.141 434.113 188 436.63L188.81 437.38L189.48 438.24C191.878 441.364 193.197 445.182 193.24 449.12C193.576 456.421 192.073 463.69 188.87 470.26L188.74 470.53L188.6 470.8C186.543 474.909 183.39 478.37 179.49 480.8L179.28 480.92C176.883 482.243 174.257 483.099 171.54 483.44Z" fill="#5B2B1D"/>
<path d="M212.3 479.54C203.462 479.592 194.756 477.396 187 473.16C179.9 469.247 174.104 463.336 170.33 456.16C165.17 446.37 164 435.76 163.54 426.68C162.8 412.52 164.1 401.38 167.64 391.63L167.81 391.17L168.01 390.72C169.563 386.982 172.44 383.949 176.09 382.2C178.385 381.108 180.898 380.551 183.44 380.57C184.444 380.576 185.446 380.65 186.44 380.79H186.82H187.1C192.321 381.496 197.574 381.936 202.84 382.11C204.208 382.131 205.571 382.285 206.91 382.57C208.715 380.843 210.895 379.556 213.28 378.81L213.47 378.75C220.774 376.474 228.224 374.699 235.77 373.44H236.09C236.915 373.328 237.747 373.271 238.58 373.27C245.8 373.27 252.32 377.27 254.91 383.27C258.556 391.805 260.915 400.833 261.91 410.06C263.398 422.165 262.238 434.448 258.51 446.06C255.485 455.381 249.794 463.61 242.14 469.73C235.25 474.89 227.105 478.111 218.55 479.06C216.478 479.34 214.391 479.501 212.3 479.54Z" fill="#5B2B1D"/>
<path d="M283.57 477C276.559 477.011 269.625 475.543 263.22 472.69C253.86 468.42 246.5 461.69 242.46 453.76C237.27 443.65 237.27 432.55 237.84 424.01C238.705 413.452 242.401 403.323 248.54 394.69C251.54 390.37 256.44 384.23 263.77 380.26C269.785 377.09 276.412 375.251 283.2 374.87H283.32C284.32 374.81 285.32 374.78 286.39 374.78C297.91 374.78 309.48 378.36 318.15 384.6L318.34 384.74C323.463 388.466 327.675 393.303 330.66 398.89L330.76 399.08L330.85 399.27C332.911 403.648 334.135 408.372 334.46 413.2C335.16 424.95 333.73 435.59 330.21 444.92L330.12 445.15C327.795 451.165 324.408 456.713 320.12 461.53L319.98 461.68C315.275 466.58 309.619 470.466 303.357 473.1C297.096 475.735 290.363 477.062 283.57 477Z" fill="#5B2B1D"/>
<path d="M353.4 482.27C352.97 482.27 352.54 482.27 352.11 482.27C350.11 482.15 341.5 481.9 336.11 481.9C334.41 481.9 333.6 481.9 333.3 481.9C332.385 482.011 331.463 482.068 330.54 482.07C323.18 482.07 317.03 478.07 314.85 471.92L314.75 471.63C314.08 469.57 313.75 467.25 313.39 460.39C313.39 459.91 313.31 459.08 313.31 459.08C313.09 455.08 312.61 441.37 312.09 426.85C311.61 413.22 311.09 399.13 310.9 395.21C310.713 391.663 311.684 388.151 313.669 385.205C315.653 382.259 318.543 380.039 321.9 378.88C328.12 376.75 341.04 376.69 342.54 376.69C352.14 376.69 353.62 376.89 354.6 377.02L355.31 377.12L356.01 377.29C358.408 377.815 360.666 378.848 362.631 380.319C364.595 381.791 366.222 383.667 367.4 385.82C368.73 384.02 372.77 379.31 379.29 378.42H379.55C380.28 378.334 381.015 378.29 381.75 378.29C383.687 378.303 385.613 378.569 387.48 379.08C391.46 380.17 395.265 381.82 398.78 383.98C402.029 385.794 405.156 387.818 408.14 390.04C413.14 393.71 415.76 399.54 414.87 405.11C414.746 405.917 414.545 406.711 414.27 407.48C413.663 410.06 412.679 412.537 411.35 414.83C409.87 417.537 408.129 420.092 406.15 422.46C403.054 426.296 399.76 429.968 396.28 433.46C398.53 434.63 400.77 435.74 402.96 436.82H403.03C406.265 437.972 409.13 439.975 411.32 442.62C413.94 445.83 417.8 453.28 409.74 463.67L409.57 463.89L409.33 464.18C405.601 468.636 401.328 472.608 396.61 476L396.4 476.15L396 476.41C392.447 478.985 388.197 480.425 383.81 480.54H383.21C380.702 480.493 378.217 480.044 375.85 479.21L375.31 479.02L374.79 478.79C372.19 477.63 369.687 476.44 367.28 475.22C365.705 477.426 363.621 479.219 361.205 480.446C358.788 481.674 356.111 482.299 353.4 482.27Z" fill="#5B2B1D"/>
<path d="M432.78 482.27C432.35 482.27 431.92 482.27 431.49 482.27C429.49 482.15 420.88 481.9 415.49 481.9C413.79 481.9 412.98 481.9 412.68 481.9C411.764 482.011 410.843 482.068 409.92 482.07C402.56 482.07 396.41 478.07 394.23 471.92L394.13 471.63C393.46 469.57 393.13 467.25 392.77 460.39C392.77 459.91 392.69 459.08 392.69 459.08C392.47 455.08 391.99 441.37 391.47 426.85C390.99 413.22 390.47 399.13 390.28 395.21C390.092 391.663 391.064 388.151 393.049 385.205C395.033 382.259 397.922 380.039 401.28 378.88C407.5 376.75 420.42 376.69 421.92 376.69C431.52 376.69 433 376.89 433.98 377.02L434.69 377.12L435.39 377.29C437.788 377.815 440.046 378.848 442.01 380.319C443.975 381.791 445.602 383.667 446.78 385.82C448.11 384.02 452.15 379.31 458.67 378.42H458.93C459.66 378.334 460.395 378.29 461.13 378.29C463.066 378.303 464.993 378.569 466.86 379.08C470.84 380.17 474.645 381.82 478.16 383.98C481.409 385.794 484.535 387.818 487.52 390.04C492.52 393.71 495.14 399.54 494.25 405.11C494.126 405.917 493.925 406.711 493.65 407.48C493.043 410.06 492.059 412.537 490.73 414.83C489.25 417.537 487.508 420.092 485.53 422.46C482.434 426.296 479.14 429.968 475.66 433.46C477.91 434.63 480.15 435.74 482.34 436.82H482.41C485.645 437.972 488.51 439.975 490.7 442.62C493.32 445.83 497.18 453.28 489.12 463.67L488.95 463.89L488.71 464.18C484.984 468.636 480.714 472.607 476 476L475.79 476.15L475.39 476.41C471.837 478.985 467.587 480.425 463.2 480.54H462.6C460.092 480.493 457.607 480.044 455.24 479.21L454.7 479.02L454.18 478.79C451.58 477.63 449.077 476.44 446.67 475.22C445.094 477.427 443.008 479.221 440.59 480.449C438.171 481.676 435.492 482.301 432.78 482.27Z" fill="#5B2B1D"/>
<path d="M484 475.89C480.895 475.91 477.855 475.001 475.27 473.28C473.395 472.027 471.818 470.377 470.651 468.446C469.485 466.516 468.757 464.353 468.52 462.11C467.43 454.46 469.33 429.11 470.61 422.48C471.493 417.27 473.032 412.193 475.19 407.37C477.627 401.83 481.33 396.939 486 393.09C493.577 386.969 502.901 383.412 512.63 382.93C513.21 382.93 513.74 382.93 514.27 382.93C520.767 383.025 527.172 384.483 533.07 387.21C538.69 389.78 542.9 392.73 546.01 396.26C551.779 403 555.825 411.04 557.8 419.69C559.8 427.69 560.65 436.53 560.37 447.4C560.328 451.917 559.994 456.426 559.37 460.9C558.985 464.576 557.313 467.997 554.65 470.56C551.613 473.312 547.739 474.964 543.65 475.25H543.39C542.62 475.32 541.82 475.35 540.96 475.35H539.39H538.55H537.63C536.41 475.35 534 475.41 531.63 475.46C529.01 475.52 526.53 475.58 524.95 475.58C524.18 475.58 523.58 475.58 523.19 475.58C519.983 475.41 516.891 474.335 514.27 472.48C511.383 474.45 507.965 475.496 504.47 475.48C504.097 475.48 503.723 475.48 503.35 475.48H503.07C500.49 475.27 497.46 475.05 494.52 475.05C492.483 475.033 490.448 475.164 488.43 475.44L487.95 475.51C486.653 475.794 485.327 475.921 484 475.89Z" fill="#5B2B1D"/>
<path d="M168.07 562.63C159.741 562.779 151.437 561.687 143.43 559.39L143.15 559.31L142.88 559.21L142.13 558.96C139.45 558.08 134.97 556.6 131.37 552.68L131.15 552.44L130.94 552.19C127.66 548.24 126.37 543.26 127.1 537.39V537.07L127.16 536.76C127.77 533.28 130.58 511.42 131.48 504.28V504.07C132.27 498.57 135.03 478.35 135.28 475.36V474.8L135.36 474.3C135.53 472.79 135.914 471.312 136.5 469.91L136.62 469.63L136.75 469.36C138.186 466.503 140.362 464.083 143.052 462.353C145.741 460.622 148.844 459.644 152.04 459.52C152.64 459.52 153.32 459.52 154.09 459.52C161.14 459.52 181.23 461.02 186.65 461.95C196.312 463.691 205.183 468.424 212.01 475.48C221.134 485.131 226.523 497.716 227.21 510.98C227.68 518.096 226.524 525.227 223.83 531.83C219.3 542.197 211.385 550.719 201.38 556C194.222 559.757 186.334 561.917 178.26 562.33C174.48 562.52 171.15 562.63 168.07 562.63Z" fill="#5B2B1D"/>
<path d="M247.61 562.35C240.6 562.347 233.668 560.865 227.27 558C217.91 553.73 210.55 547 206.51 539.07C201.32 528.96 201.32 517.86 201.89 509.32C202.755 498.762 206.451 488.633 212.59 480C215.59 475.68 220.49 469.54 227.82 465.57C233.835 462.4 240.462 460.561 247.25 460.18H247.37C248.37 460.12 249.37 460.09 250.44 460.09C261.96 460.09 273.53 463.67 282.2 469.91L282.39 470.05C287.513 473.776 291.725 478.613 294.71 484.2L294.81 484.39L294.9 484.58C296.961 488.958 298.185 493.682 298.51 498.51C299.21 510.26 297.78 520.9 294.26 530.22L294.17 530.45C291.845 536.465 288.457 542.013 284.17 546.83L284 547C279.3 551.903 273.648 555.793 267.39 558.433C261.132 561.072 254.401 562.405 247.61 562.35Z" fill="#5B2B1D"/>
<path d="M328.21 567.56C325.661 567.563 323.115 567.389 320.59 567.04C312.425 566.008 304.495 563.593 297.14 559.9L296.89 559.77C291.698 557.055 287.054 553.404 283.19 549L282.93 548.68C279.302 544.091 276.586 538.85 274.93 533.24V533.14C271.371 520.658 272.378 507.316 277.77 495.51C280.62 489.18 281.01 477.93 286.07 473.12C290.67 468.74 299.79 470.61 305.46 468.25C312.179 465.509 319.373 464.122 326.63 464.17C332.106 464.161 337.557 464.904 342.83 466.38L343.07 466.45C349.672 468.412 355.673 472.006 360.52 476.9C364.527 480.781 367.451 485.641 369 491C370.61 496.84 370.33 502.51 370.1 507.08V508C370.109 510.554 369.772 513.097 369.1 515.56C368.619 517.148 367.908 518.658 366.99 520.04C367.177 520.533 367.337 521.037 367.47 521.55C368.1 523.64 368.8 525.76 369.54 528C370.07 529.6 370.6 531.21 371.12 532.83C374.53 543.57 371.34 549.67 367.32 553.09C364.256 555.918 360.858 558.359 357.2 560.36L357.01 560.46C348.109 565.078 338.237 567.512 328.21 567.56Z" fill="#5B2B1D"/>
<path d="M391.48 568.57C384.833 568.586 378.229 567.512 371.93 565.39C367.444 563.87 363.221 561.663 359.41 558.85C349.06 551.01 347.65 535.56 352.25 525.71L352.31 525.59C352.94 524.271 353.672 523.004 354.5 521.8C351.118 517.417 348.878 512.263 347.98 506.8C346.628 498.087 348.192 489.172 352.43 481.44C354.616 477.483 357.492 473.947 360.92 471C365.18 467.43 370.043 464.65 375.28 462.79L375.66 462.66C382.025 460.616 388.675 459.604 395.36 459.66C397.75 459.66 400.17 459.78 402.58 460.02C410.788 460.709 418.646 463.658 425.28 468.54C431.77 473.393 436.194 480.512 437.67 488.48C438.577 493.75 438.428 499.148 437.23 504.36C436.404 508.596 434.456 512.533 431.59 515.76L431.31 516.06C434.182 520.307 435.911 525.222 436.33 530.332C436.749 535.441 435.843 540.572 433.7 545.23C430.316 552.475 424.712 558.455 417.7 562.3C412.658 565.035 407.192 566.901 401.53 567.82H401.36C398.092 568.334 394.788 568.585 391.48 568.57Z" fill="#5B2B1D"/>
<path d="M460.38 545.08C460.04 545.08 459.7 545.08 459.38 545.08C444.74 544.01 433.51 539.08 426.02 530.37C419.817 522.981 416.65 513.514 417.16 503.88C417.16 503.76 417.16 503.64 417.16 503.51C419.16 473 449.1 462.17 474.09 462.17C475.29 462.17 475.96 462.17 475.96 462.17C478.132 462.259 480.253 462.853 482.155 463.905C484.058 464.956 485.689 466.436 486.921 468.227C488.152 470.018 488.949 472.072 489.249 474.224C489.55 476.377 489.344 478.57 488.65 480.63C483.36 496.32 475.65 505.86 467.86 511.63C470.644 516.841 472.732 522.395 474.07 528.15C474.509 530.192 474.485 532.306 474.001 534.337C473.516 536.368 472.584 538.265 471.271 539.89C469.958 541.514 468.299 542.824 466.415 543.724C464.53 544.623 462.468 545.09 460.38 545.09V545.08Z" fill="#5B2B1D"/>
<path d="M168.07 470.37C165.838 470.21 163.627 469.828 161.47 469.23C154.829 467.455 148.413 464.921 142.35 461.68C135.566 466.792 127.468 469.869 119 470.55C111.5 471.161 103.975 469.709 97.2403 466.35C93.9166 464.518 90.8835 462.203 88.2403 459.48C82.6903 453.48 79.0303 446.17 75.9603 438.83C71.1903 427.22 71.1203 413.51 74.5003 401.53C76.7403 393.88 83.0003 387 90.1003 382.91C97.9309 378.276 106.904 375.931 116 376.14C122.908 376.172 129.692 377.98 135.7 381.39C140.389 384.167 144.281 388.108 147 392.83C152.52 402.48 156.67 413.14 157.8 424.07C158.498 430.043 157.991 436.096 156.31 441.87C162.57 442.87 168.88 444.03 175.13 445.06C176.245 445.117 177.322 445.484 178.24 446.12C178.942 447.145 179.293 448.369 179.24 449.61C179.491 454.831 178.422 460.032 176.13 464.73C175.231 466.668 173.825 468.326 172.06 469.53C170.83 470.163 169.452 470.454 168.07 470.37ZM126.26 427.9C127.541 422.504 127.133 416.846 125.09 411.69C124.22 409.154 122.74 406.87 120.78 405.04C115.54 400.57 107.68 403.25 104.78 409.29C102.88 413.29 102.99 418.11 103.7 422.42C104.061 426.07 105.266 429.586 107.22 432.69C108.408 434.601 110.153 436.102 112.22 436.99C118.53 439.49 124.6 434.08 126.26 427.89V427.9Z" fill="white"/>
<mask id="mask0_344_875" style="mask-type:luminance" maskUnits="userSpaceOnUse" x="72" y="376" width="108" height="95">
<path d="M168.07 470.37C165.838 470.21 163.627 469.828 161.47 469.23C154.829 467.455 148.413 464.921 142.35 461.68C135.566 466.792 127.468 469.869 119 470.55C111.5 471.161 103.975 469.709 97.2403 466.35C93.9166 464.518 90.8835 462.203 88.2403 459.48C82.6903 453.48 79.0303 446.17 75.9603 438.83C71.1903 427.22 71.1203 413.51 74.5003 401.53C76.7403 393.88 83.0003 387 90.1003 382.91C97.9309 378.276 106.904 375.931 116 376.14C122.908 376.172 129.692 377.98 135.7 381.39C140.389 384.167 144.281 388.108 147 392.83C152.52 402.48 156.67 413.14 157.8 424.07C158.498 430.043 157.991 436.096 156.31 441.87C162.57 442.87 168.88 444.03 175.13 445.06C176.245 445.117 177.322 445.484 178.24 446.12C178.942 447.145 179.293 448.369 179.24 449.61C179.491 454.831 178.422 460.032 176.13 464.73C175.231 466.668 173.825 468.326 172.06 469.53C170.83 470.163 169.452 470.454 168.07 470.37ZM126.26 427.9C127.541 422.504 127.133 416.846 125.09 411.69C124.22 409.154 122.74 406.87 120.78 405.04C115.54 400.57 107.68 403.25 104.78 409.29C102.88 413.29 102.99 418.11 103.7 422.42C104.061 426.07 105.266 429.586 107.22 432.69C108.408 434.601 110.153 436.102 112.22 436.99C118.53 439.49 124.6 434.08 126.26 427.89V427.9Z" fill="white"/>
</mask>
<g mask="url(#mask0_344_875)">
<path d="M127.55 551.4C165.796 551.4 196.8 520.396 196.8 482.15C196.8 443.904 165.796 412.9 127.55 412.9C89.3046 412.9 58.3003 443.904 58.3003 482.15C58.3003 520.396 89.3046 551.4 127.55 551.4Z" fill="#7DCFCA"/>
</g>
<path d="M194.07 461.75C189.297 459.11 185.395 455.139 182.84 450.32C178.96 442.97 177.9 434.32 177.49 426.07C176.97 416.07 177.39 405.5 180.85 395.96C181.097 395.174 181.619 394.503 182.32 394.07C183.131 393.787 184.009 393.752 184.84 393.97C190.654 394.766 196.505 395.264 202.37 395.46C203.202 395.434 204.027 395.605 204.78 395.96C205.176 396.297 205.48 396.728 205.664 397.214C205.847 397.701 205.905 398.226 205.83 398.74C204.853 406.084 204.608 413.507 205.1 420.9C205.52 425.17 206.1 429.64 208.1 433.52C209.044 435.322 210.461 436.833 212.2 437.89C213.423 438.551 214.817 438.827 216.2 438.68C217.501 438.379 218.676 437.68 219.56 436.68C221.34 434.39 221.77 431.31 222.08 428.43C223.23 417.6 220.5 406.43 216.73 396.04C216.1 394.25 215.79 392.04 217.67 391.47C224.343 389.39 231.148 387.763 238.04 386.6C239.51 386.4 241.4 387.1 241.93 388.39C245.099 395.805 247.144 403.651 248 411.67C249.273 421.925 248.307 432.334 245.17 442.18C242.992 449.007 238.87 455.05 233.31 459.57C228.493 463.132 222.816 465.351 216.86 466C209.007 466.968 201.046 465.484 194.07 461.75Z" fill="white"/>
<path d="M269.25 460.76C263.37 458.08 257.91 453.61 255.08 448.04C251.51 441.04 251.3 432.64 251.83 424.89C252.52 416.656 255.423 408.761 260.23 402.04C262.96 398.16 266.32 394.19 270.73 391.81C274.896 389.638 279.479 388.383 284.17 388.13C292.99 387.63 302.65 390.13 309.68 395.18C313.16 397.69 316.03 400.951 318.08 404.72C319.457 407.657 320.278 410.824 320.5 414.06C321.03 422.9 320.19 432.14 317.04 440.49C315.274 445.044 312.715 449.25 309.48 452.91C299.49 463.54 282.69 466.82 269.25 460.76ZM293 432.44C296.67 427.67 299.72 418.03 296 413.06C293.38 409.48 288 409.28 284.24 411.87C282.309 413.29 280.76 415.166 279.73 417.33C277.732 420.912 276.717 424.959 276.79 429.06C276.811 430.652 277.205 432.217 277.94 433.63C281.12 439.1 289 437.51 293 432.44Z" fill="white"/>
<path d="M353.15 469C350.15 468.8 334.78 468.4 331.84 468.7C330.48 468.9 328.59 468.9 328.17 467.7C327.75 466.5 327.44 459.85 327.33 458.36C326.91 450.61 325.33 402.12 324.91 394.36C324.859 393.725 325.002 393.09 325.322 392.539C325.642 391.989 326.123 391.549 326.7 391.28C329.22 390.28 339.93 389.89 342.55 389.89C344.02 389.89 351.16 389.89 352.63 390.09C353.411 390.225 354.113 390.646 354.599 391.271C355.086 391.896 355.322 392.68 355.26 393.47C355.16 397.15 355.89 418.11 356 421.79C365.55 414.04 372.27 403.61 378.89 393.37C379.5 392.522 380.34 391.866 381.31 391.48C382.161 391.426 383.015 391.527 383.83 391.78C386.572 392.566 389.188 393.737 391.6 395.26C394.379 396.804 397.051 398.531 399.6 400.43C400.063 400.704 400.443 401.097 400.702 401.569C400.961 402.04 401.088 402.573 401.07 403.11C401.07 403.21 400.76 403.81 400.76 403.91C400.478 405.601 399.87 407.221 398.97 408.68C397.869 410.691 396.569 412.587 395.09 414.34C389 421.99 381.65 428.75 374.51 435.6C376.667 437.501 379.013 439.176 381.51 440.6C386.51 443.6 391.69 446.16 396.94 448.75C398.1 449.25 399.46 449.64 400.19 450.64C401.45 452.03 399.56 454.42 398.4 455.91C395.415 459.499 391.995 462.703 388.22 465.45C386.85 466.34 385.28 467.45 383.6 467.34C382.636 467.327 381.68 467.159 380.77 466.84C371.881 462.989 363.488 458.084 355.77 452.23C355.66 454.02 355.66 463.76 355.77 465.45V467.54C355.564 468.045 355.193 468.464 354.716 468.73C354.24 468.995 353.688 469.09 353.15 469Z" fill="white"/>
<path d="M432.52 469C429.52 468.8 414.15 468.4 411.21 468.7C409.85 468.9 407.96 468.9 407.54 467.7C407.12 466.5 406.81 459.85 406.7 458.36C406.28 450.61 404.7 402.12 404.28 394.36C404.229 393.725 404.373 393.09 404.692 392.539C405.012 391.989 405.493 391.549 406.07 391.28C408.59 390.28 419.3 389.89 421.92 389.89C423.39 389.89 430.53 389.89 432 390.09C432.781 390.225 433.483 390.646 433.97 391.271C434.456 391.896 434.692 392.68 434.63 393.47C434.53 397.15 435.26 418.11 435.37 421.79C444.92 414.04 451.64 403.61 458.26 393.37C458.87 392.522 459.71 391.866 460.68 391.48C461.532 391.426 462.386 391.527 463.2 391.78C465.942 392.566 468.558 393.737 470.97 395.26C473.749 396.804 476.421 398.531 478.97 400.43C479.433 400.704 479.814 401.097 480.072 401.569C480.331 402.04 480.458 402.573 480.44 403.11C480.44 403.21 480.13 403.81 480.13 403.91C479.848 405.601 479.24 407.221 478.34 408.68C477.239 410.691 475.939 412.587 474.46 414.34C468.37 421.99 461.02 428.75 453.88 435.6C456.037 437.501 458.383 439.176 460.88 440.6C465.88 443.6 471.06 446.16 476.31 448.75C477.47 449.25 478.83 449.64 479.56 450.64C480.82 452.03 478.93 454.42 477.77 455.91C474.785 459.499 471.365 462.703 467.59 465.45C466.22 466.34 464.65 467.45 462.97 467.34C462.006 467.327 461.05 467.159 460.14 466.84C451.252 462.989 442.858 458.084 435.14 452.23C435.03 454.02 435.03 463.76 435.14 465.45V467.54C434.934 468.045 434.563 468.464 434.086 468.73C433.61 468.995 433.058 469.09 432.52 469Z" fill="white"/>
<path d="M483.34 462.45C483.045 462.187 482.808 461.865 482.645 461.505C482.481 461.145 482.394 460.755 482.39 460.36C481.55 454.8 483.23 430.45 484.39 424.79C485.086 420.576 486.319 416.47 488.06 412.57C489.629 408.923 492.026 405.691 495.06 403.13C500.23 398.943 506.588 396.493 513.23 396.13C517.983 396.066 522.686 397.092 526.98 399.13C530.062 400.404 532.849 402.296 535.17 404.69C539.559 409.878 542.62 416.056 544.09 422.69C546.09 430.54 546.51 438.89 546.3 447.03C546.281 451.044 546 455.052 545.46 459.03C545.456 459.79 545.195 460.526 544.72 461.12C543.96 461.68 543.045 461.991 542.1 462.01C540.95 462.11 539.79 462.01 538.53 462.01C536.74 461.91 525.83 462.31 524.04 462.21C520.79 462.01 521.73 457.64 521.62 454.56C519.83 454.46 508.71 454.36 506.92 454.26C506.816 456.078 506.816 457.902 506.92 459.72C506.939 460.059 506.882 460.398 506.753 460.712C506.625 461.026 506.428 461.307 506.177 461.536C505.926 461.765 505.628 461.935 505.303 462.034C504.979 462.134 504.636 462.159 504.3 462.11C498.263 461.448 492.17 461.481 486.14 462.21C485.677 462.22 485.217 462.287 484.77 462.41C484.553 462.532 484.309 462.599 484.06 462.606C483.811 462.613 483.564 462.56 483.34 462.45ZM507 438.1C511.93 438 516.87 437.8 521.8 437.9C521.856 435.18 521.753 432.458 521.49 429.75C521.353 426.893 520.563 424.105 519.18 421.6C518.44 420.41 517.18 419.12 515.72 419.12C512.15 419.02 509.52 423.99 508.47 427.12C507.507 430.701 507.013 434.392 507 438.1Z" fill="white"/>
<path d="M147.72 546.78C145.72 546.08 143.31 545.49 141.95 544C140.8 542.61 140.8 540.62 141.01 538.93C141.74 534.76 144.89 510.01 145.42 505.84C145.95 502.16 148.99 480.1 149.31 476.43C149.353 475.89 149.457 475.357 149.62 474.84C149.922 474.251 150.37 473.749 150.922 473.383C151.474 473.017 152.11 472.799 152.77 472.75C157.49 472.45 179.65 474.14 184.27 474.94C190.953 476.186 197.081 479.486 201.8 484.38C208.736 491.814 212.826 501.457 213.35 511.61C213.711 516.827 212.883 522.059 210.93 526.91C207.583 534.41 201.815 540.569 194.55 544.4C189.251 547.174 183.414 548.767 177.44 549.07C167.56 549.66 157.17 549.66 147.72 546.78ZM179.22 524.52C180.938 524.261 182.568 523.594 183.974 522.574C185.38 521.555 186.521 520.212 187.3 518.66C189.001 515.104 189.479 511.086 188.66 507.23C188.351 505.482 187.669 503.821 186.66 502.36C185.495 500.996 184.066 499.88 182.46 499.08C179.121 497.606 175.605 496.571 172 496C170.64 505.14 168.85 514.18 167.28 523.23C171 524.42 175.33 525.21 179.22 524.52Z" fill="white"/>
<path d="M233.29 546.08C227.41 543.4 221.95 538.93 219.12 533.36C215.55 526.36 215.34 517.96 215.87 510.21C216.56 501.976 219.463 494.081 224.27 487.36C227 483.48 230.36 479.51 234.77 477.13C238.936 474.958 243.519 473.703 248.21 473.45C257.03 472.95 266.69 475.45 273.72 480.5C277.2 483.01 280.07 486.271 282.12 490.04C283.497 492.977 284.318 496.144 284.54 499.38C285.07 508.22 284.23 517.46 281.08 525.81C279.314 530.364 276.755 534.57 273.52 538.23C263.53 548.86 246.73 552.14 233.29 546.08ZM257 517.76C260.67 512.99 263.72 503.35 260 498.38C257.38 494.8 252 494.6 248.24 497.19C246.309 498.61 244.76 500.486 243.73 502.65C241.732 506.232 240.717 510.279 240.79 514.38C240.822 515.994 241.237 517.577 242 519C245.16 524.42 253 522.83 257 517.76Z" fill="white"/>
<path d="M322.64 553.93C316.103 553.114 309.75 551.201 303.85 548.27C300.163 546.37 296.856 543.811 294.09 540.72C291.518 537.447 289.593 533.714 288.42 529.72C285.725 520.121 286.507 509.878 290.63 500.8C294.51 492.15 302.07 484.21 311.1 480.43C319.6 476.85 330 476.65 338.82 479.14C343.154 480.418 347.091 482.779 350.26 486C352.674 488.288 354.449 491.166 355.41 494.35C356.56 498.52 356.25 503 356.04 507.27C355.93 510.35 355.93 514.42 352.68 514.03C349.819 513.397 346.9 513.062 343.97 513.03C340.955 513.211 337.951 513.545 334.97 514.03C333.793 514.278 332.577 514.278 331.4 514.03C330.754 513.766 330.23 513.27 329.93 512.64C329.596 511.309 329.422 509.942 329.41 508.57C329.123 506.629 328.443 504.768 327.41 503.1C326.698 502.044 325.668 501.242 324.47 500.81C323.509 500.497 322.468 500.532 321.53 500.91C320.033 501.465 318.699 502.386 317.65 503.59C312.65 509.05 310.93 519.79 315.44 525.65C316.484 527.03 317.86 528.124 319.44 528.83C322.569 530.251 326.024 530.801 329.44 530.42C335.53 529.82 341.44 527.54 346.76 524.76C348.23 524.06 351.06 521.88 352.43 522.76C353.176 523.281 353.7 524.062 353.9 524.95C355.06 528.83 356.42 532.7 357.68 536.67C358.31 538.67 359.47 542.33 357.58 543.53C356.63 544.92 351.7 548.1 350.23 548.9C341.757 553.338 332.134 555.092 322.64 553.93Z" fill="white"/>
<path d="M376.72 552.94C373.638 551.901 370.734 550.393 368.11 548.47C363.39 544.89 362.65 536.25 365.11 531.08C366.11 528.89 367.84 526.61 370.25 525.81C373.08 524.81 376.34 525.71 379.25 526.21C380.82 526.41 382.4 526.61 383.87 526.91C385.34 527.21 386.7 527.91 387.33 529C388.062 530.369 388.285 531.952 387.96 533.47C387.838 534.099 387.869 534.747 388.05 535.362C388.231 535.976 388.557 536.538 389 537C391.2 538.79 395.61 538.59 397.92 537C398.507 536.566 398.977 535.994 399.289 535.335C399.601 534.675 399.746 533.949 399.71 533.22C399.665 532.219 399.398 531.241 398.929 530.356C398.461 529.471 397.802 528.7 397 528.1C392.91 525.22 387.45 524.92 382.51 523.53C376.73 521.94 370.85 519.26 366.76 515.08C364.145 512.19 362.432 508.6 361.83 504.75C360.929 498.846 361.983 492.81 364.83 487.56C366.235 485.001 368.084 482.712 370.29 480.8C373.264 478.339 376.649 476.423 380.29 475.14C387.041 473.038 394.153 472.357 401.18 473.14C406.714 473.579 412.019 475.538 416.51 478.8C420.328 481.665 422.947 485.845 423.86 490.53C424.485 494.182 424.376 497.921 423.54 501.53C423.194 503.547 422.317 505.435 421 507C419.72 508.12 418.162 508.877 416.49 509.19C414.033 509.674 411.534 509.909 409.03 509.89C406.794 509.943 404.563 509.643 402.42 509C401.149 508.65 400.016 507.921 399.17 506.91C398.502 506.079 398.067 505.085 397.91 504.03C397.39 501.65 397.81 499.16 397.6 496.78C397.515 495.466 396.953 494.229 396.02 493.3C395.462 492.862 394.813 492.555 394.121 492.401C393.429 492.247 392.711 492.25 392.02 492.41C386.87 493.41 383.73 499.47 385.93 503.84C387.5 506.92 390.76 509.11 394.01 510.6C398.95 512.89 404.4 513.78 409.55 515.77C412.832 516.89 415.789 518.799 418.16 521.33C420.352 523.857 421.769 526.962 422.241 530.273C422.712 533.585 422.219 536.962 420.82 540C418.605 544.596 415.007 548.383 410.53 550.83C406.931 552.764 403.034 554.082 399 554.73C391.538 555.939 383.894 555.325 376.72 552.94Z" fill="white"/>
<path d="M475.39 476.15C475.39 476.15 433.14 474.4 431.14 504.4C430.87 507.96 430.57 528.9 460.38 531.07C460.38 531.07 456.48 512.91 444.73 506.07C454.65 505.13 467.66 499 475.39 476.15Z" fill="#7DCFCA"/>
</svg>
