<svg width="15" height="15" viewBox="0 0 15 15" fill="none" xmlns="http://www.w3.org/2000/svg">
<path d="M7.21191 0C11.1944 0.000203187 14.4226 3.22939 14.4229 7.21191C14.4226 11.1944 11.1944 14.4226 7.21191 14.4229C3.22941 14.4226 0.000203183 11.1944 0 7.21191C0.000203002 3.22941 3.22941 0.000230065 7.21191 0ZM7.21191 1.5C4.05784 1.50023 1.5002 4.05783 1.5 7.21191C1.5002 10.366 4.05784 12.9226 7.21191 12.9229C10.366 12.9226 12.9226 10.366 12.9229 7.21191C12.9226 4.05782 10.366 1.5002 7.21191 1.5ZM7.21191 3.62207C9.19447 3.62207 10.8018 5.22935 10.8018 7.21191C10.8018 9.19447 9.19447 10.8018 7.21191 10.8018C5.22938 10.8017 3.62207 9.19446 3.62207 7.21191C3.62207 5.22937 5.22938 3.6221 7.21191 3.62207Z" fill="#C25048"/>
</svg>
