<svg width="12" height="13" viewBox="0 0 12 13" fill="none" xmlns="http://www.w3.org/2000/svg">
<path d="M7.66084 4.80769L7.45105 9.88462M4.54895 9.88462L4.33916 4.80769M10.3804 2.99724C10.5877 3.02638 10.7942 3.05755 11 3.09073M10.3804 2.99724L9.73321 10.8281C9.67856 11.4894 9.08614 12 8.37359 12H3.62641C2.91386 12 2.32144 11.4894 2.26679 10.8281L1.61961 2.99724M10.3804 2.99724C9.68559 2.89958 8.98273 2.82479 8.27273 2.77372M1 3.09073C1.2058 3.05755 1.41235 3.02638 1.61961 2.99724M1.61961 2.99724C2.31441 2.89958 3.01727 2.82479 3.72727 2.77372M8.27273 2.77372V2.25693C8.27273 1.59164 7.72082 1.03623 7.00642 1.01496C6.67226 1.00501 6.33676 1 6 1C5.66324 1 5.32774 1.00501 4.99359 1.01496C4.27918 1.03623 3.72727 1.59164 3.72727 2.25693V2.77372M8.27273 2.77372C7.52276 2.71978 6.76483 2.69231 6 2.69231C5.23517 2.69231 4.47724 2.71978 3.72727 2.77372" stroke="#C25048" stroke-width="1.2" stroke-linecap="round" stroke-linejoin="round"/>
</svg>
