<svg width="96" height="96" viewBox="0 0 96 96" fill="none" xmlns="http://www.w3.org/2000/svg">
<g clip-path="url(#clip0_163_305)">
<path d="M96 48C96 21.4903 74.5098 0 48 0C21.4903 0 0 21.4903 0 48C0 74.5098 21.4903 96 48 96C74.5098 96 96 74.5098 96 48Z" fill="#121212"/>
<path d="M47.9502 48C47.9502 43.5819 51.5319 39.9999 55.95 39.9999C60.3684 39.9999 63.9501 43.5819 63.9501 48C63.9501 52.4184 60.3684 56.0001 55.95 56.0001C51.5319 56.0001 47.9502 52.4184 47.9502 48Z" fill="#1ABCFE"/>
<path d="M31.95 63.9999C31.95 59.5818 35.5317 56.0001 39.9501 56.0001H47.9502V63.9999C47.9502 68.4183 44.3685 72 39.9501 72C35.5317 72 31.95 68.4183 31.95 63.9999Z" fill="#0ACF83"/>
<path d="M47.9502 24V39.9999H55.95C60.3684 39.9999 63.9501 36.4182 63.9501 32.0001C63.9501 27.5817 60.3684 24 55.95 24H47.9502Z" fill="#FF7262"/>
<path d="M31.95 32.0001C31.95 36.4182 35.5317 39.9999 39.9501 39.9999H47.9502V24H39.9501C35.5317 24 31.95 27.5817 31.95 32.0001Z" fill="#F24E1E"/>
<path d="M31.95 48C31.95 52.4184 35.5317 56.0001 39.9501 56.0001H47.9502V39.9999H39.9501C35.5317 39.9999 31.95 43.5819 31.95 48Z" fill="#A259FF"/>
</g>
<defs>
<clipPath id="clip0_163_305">
<rect width="96" height="96" fill="white"/>
</clipPath>
</defs>
</svg>
