<svg width="12" height="18" viewBox="0 0 12 18" fill="none" xmlns="http://www.w3.org/2000/svg">
<path d="M3 3C3 1.34315 4.34315 0 6 0C7.65685 0 9 1.34315 9 3V9C9 10.6569 7.65685 12 6 12C4.34315 12 3 10.6569 3 9V3Z" fill="#A0A0A0"/>
<path d="M1.5 8.64282C1.5 8.22861 1.16421 7.89282 0.75 7.89282C0.335786 7.89282 0 8.22861 0 8.64282V8.99997C0 12.0597 2.29027 14.5845 5.25 14.9535V16.5H3.75C3.33579 16.5 3 16.8358 3 17.25C3 17.6642 3.33579 18 3.75 18H8.25C8.66421 18 9 17.6642 9 17.25C9 16.8358 8.66421 16.5 8.25 16.5H6.75V14.9535C9.70973 14.5845 12 12.0597 12 8.99997V8.64282C12 8.22861 11.6642 7.89282 11.25 7.89282C10.8358 7.89282 10.5 8.22861 10.5 8.64282V8.99997C10.5 11.4852 8.48528 13.5 6 13.5C3.51472 13.5 1.5 11.4852 1.5 8.99997V8.64282Z" fill="#A0A0A0"/>
</svg>
