<svg width="13" height="14" viewBox="0 0 13 14" fill="none" xmlns="http://www.w3.org/2000/svg">
<path d="M3.8429 6.3835C3.62942 5.99416 3.22 5.73077 2.75 5.73077C2.05964 5.73077 1.5 6.29902 1.5 7C1.5 7.70098 2.05964 8.26923 2.75 8.26923C3.22 8.26923 3.62942 8.00584 3.8429 7.6165M3.8429 6.3835C3.94298 6.56603 4 6.77626 4 7C4 7.22374 3.94298 7.43397 3.8429 7.6165M3.8429 6.3835L9.1571 3.38574M3.8429 7.6165L9.1571 10.6143M9.1571 10.6143C9.05702 10.7968 9 11.007 9 11.2308C9 11.9317 9.55964 12.5 10.25 12.5C10.9404 12.5 11.5 11.9317 11.5 11.2308C11.5 10.5298 10.9404 9.96154 10.25 9.96154C9.78 9.96154 9.37058 10.2249 9.1571 10.6143ZM9.1571 3.38574C9.37058 3.77507 9.78 4.03846 10.25 4.03846C10.9404 4.03846 11.5 3.47021 11.5 2.76923C11.5 2.06825 10.9404 1.5 10.25 1.5C9.55964 1.5 9 2.06825 9 2.76923C9 2.99298 9.05702 3.2032 9.1571 3.38574Z" stroke="#121212" stroke-width="1.5" stroke-linecap="round" stroke-linejoin="round"/>
</svg>
